# Blender v2.91.0 OBJ File: 'untitled2.blend'
# www.blender.org
mtllib boat.mtl
o Cube.011
v 10.836828 0.518648 -27.087488
v 10.785484 0.885088 -28.205917
v 12.041828 1.000086 -27.851093
v 12.450655 1.041439 -27.140476
v 4.563358 0.647164 -26.935629
v 3.868511 1.854522 -26.948694
v 3.866243 1.851069 -27.043222
v 4.561352 0.645127 -27.016766
v 11.120163 2.119122 -28.428713
v 12.585314 2.235224 -28.014801
v 5.803925 0.572844 -27.616060
v 5.840088 0.258362 -26.957451
v 7.041942 0.621466 -28.112114
v 7.093658 0.251177 -26.988258
v 8.286677 0.686764 -28.313774
v 8.343012 0.313464 -27.020702
v 9.534328 0.777131 -28.346880
v 9.590482 0.406796 -27.053877
v 5.310214 1.833504 -27.743174
v 6.757274 1.818451 -28.319555
v 8.207844 1.894001 -28.554544
v 9.661851 1.998104 -28.593094
v 12.806348 2.268569 -27.180006
v 12.077467 1.036199 -26.409361
v 10.840321 0.940653 -25.987625
v 4.565363 0.649191 -26.854490
v 3.870918 1.855805 -26.854116
v 12.626846 2.277309 -26.334696
v 11.184065 2.183873 -25.843651
v 5.836102 0.605448 -26.314419
v 7.097040 0.677298 -25.883156
v 8.350134 0.751064 -25.746725
v 9.597784 0.841432 -25.779829
v 5.347710 1.871499 -26.226318
v 6.821483 1.883514 -25.722063
v 8.281793 1.968933 -25.563063
v 9.735799 2.073035 -25.601612
v 4.686752 0.665725 -27.000908
v 4.035458 1.859648 -27.022396
v 4.048335 1.862676 -26.953344
v 4.684531 0.669379 -26.939180
v 11.919095 1.009475 -27.824078
v 12.424656 2.230855 -27.978863
v 11.035903 2.115386 -28.362930
v 10.724602 0.900586 -28.159231
v 5.894022 0.585418 -27.583279
v 5.440469 1.837412 -27.695845
v 7.108890 0.643466 -28.068974
v 6.850488 1.823490 -28.259605
v 8.307814 0.708153 -28.263504
v 8.238440 1.897825 -28.483881
v 9.513226 0.795737 -28.295559
v 9.633426 1.998220 -28.520992
v 12.327511 1.051683 -27.137690
v 12.626440 2.261813 -27.175390
v 4.038887 1.863123 -26.883677
v 4.689801 0.668815 -26.877533
v 11.096664 2.176956 -25.904922
v 12.464615 2.271345 -26.362394
v 11.953539 1.044376 -26.430719
v 10.777187 0.953871 -26.031965
v 5.475465 1.872872 -26.280157
v 5.924454 0.616255 -26.352198
v 6.911616 1.885432 -25.786720
v 7.161750 0.697029 -25.930595
v 8.308857 1.969179 -25.635254
v 8.368736 0.769886 -25.798985
v 9.703848 2.069579 -25.672138
v 9.574151 0.857472 -25.830912
v 11.936515 1.028194 -27.127436
v 11.919095 1.009475 -27.824078
v 10.724602 0.900586 -28.159231
v 10.815536 0.869485 -27.095749
v 5.818779 0.609472 -26.965719
v 5.894022 0.585418 -27.583279
v 4.686752 0.665725 -27.000908
v 4.684531 0.669379 -26.939180
v 7.072357 0.602145 -26.996523
v 7.108890 0.643466 -28.068974
v 8.321715 0.664371 -27.028965
v 8.307814 0.708153 -28.263504
v 9.569187 0.757661 -27.062140
v 9.513226 0.795737 -28.295559
v 10.777187 0.953871 -26.031965
v 11.953539 1.044376 -26.430719
v 4.689801 0.668815 -26.877533
v 5.924454 0.616255 -26.352198
v 7.161750 0.697029 -25.930595
v 8.368736 0.769886 -25.798985
v 9.574151 0.857472 -25.830912
vt 0.293674 0.182356
vt 0.293674 0.087459
vt 0.204974 0.120679
vt 0.204974 0.182356
vt 0.953620 0.316924
vt 0.953620 0.438678
vt 0.941970 0.438678
vt 0.943623 0.316924
vt -0.092811 0.334035
vt -0.166038 0.545104
vt -0.424098 0.545104
vt -0.314257 0.334035
vt 0.737173 0.182356
vt 0.737173 0.175414
vt 0.648473 0.126672
vt 0.648473 0.182356
vt 0.559774 0.087002
vt 0.559774 0.182356
vt 0.471074 0.072539
vt 0.471074 0.182356
vt 0.382374 0.072539
vt 0.382374 0.182356
vt 1.014421 0.334035
vt 1.124261 0.545104
vt 0.866201 0.545104
vt 0.792975 0.334035
vt 0.608141 0.545104
vt 0.571528 0.334035
vt 0.350082 0.545104
vt 0.350082 0.334035
vt 0.092022 0.545104
vt 0.128636 0.334035
vt 1.074048 0.343621
vt 1.109922 0.641039
vt 0.857075 0.641039
vt 0.857075 0.343621
vt 0.293674 0.796789
vt 0.204974 0.796789
vt 0.204974 0.735112
vt 0.293674 0.701892
vt 0.963618 0.316924
vt 0.965271 0.438678
vt 0.001974 0.414336
vt -0.215379 0.414336
vt -0.323190 0.621503
vt -0.069900 0.621503
vt 0.737173 0.796789
vt 0.648473 0.796789
vt 0.648473 0.741105
vt 0.737173 0.789847
vt 0.559774 0.796789
vt 0.559774 0.701435
vt 0.471074 0.796789
vt 0.471074 0.686972
vt 0.382374 0.796789
vt 0.382374 0.686972
vt 1.088739 0.414336
vt 0.871386 0.414336
vt 0.943259 0.621503
vt 1.196548 0.621503
vt 0.654033 0.414336
vt 0.689969 0.621503
vt 0.436680 0.414336
vt 0.436680 0.621503
vt 0.219327 0.414336
vt 0.183390 0.621503
vt 0.640102 0.343621
vt 0.604228 0.641039
vt 0.943623 0.316924
vt 0.941970 0.438678
vt 0.953620 0.438678
vt 0.953620 0.316924
vt -0.314257 0.334035
vt -0.424098 0.545104
vt -0.166038 0.545104
vt -0.092811 0.334035
vt 0.792975 0.334035
vt 0.866201 0.545104
vt 1.124261 0.545104
vt 1.014421 0.334035
vt 0.571528 0.334035
vt 0.608141 0.545104
vt 0.350082 0.334035
vt 0.350082 0.545104
vt 0.128636 0.334035
vt 0.092022 0.545104
vt 0.857075 0.441597
vt 0.857075 0.543063
vt 0.943336 0.543063
vt 0.931097 0.441597
vt 0.965271 0.438678
vt 0.963618 0.316924
vt 0.006652 0.881113
vt -0.246638 0.881113
vt -0.138828 0.673945
vt 0.078525 0.673945
vt 1.273100 0.881113
vt 1.019810 0.881113
vt 0.947938 0.673945
vt 1.165291 0.673945
vt 0.766521 0.881113
vt 0.730585 0.673945
vt 0.513231 0.881113
vt 0.513231 0.673945
vt 0.259941 0.881113
vt 0.295878 0.673945
vt 0.770814 0.543063
vt 0.783053 0.441597
vt 1.052279 0.129218
vt 1.051290 0.150725
vt 1.017275 0.149037
vt 1.020123 0.133367
vt -0.579737 -0.118749
vt -0.302898 -0.207054
vt -0.287685 -0.192053
vt -0.550394 -0.110272
vt 0.781514 -0.033961
vt 0.756694 -0.023689
vt 0.512567 -0.167440
vt 0.494801 -0.154319
vt 0.243112 -0.225368
vt 0.236928 -0.209669
vt -0.028673 -0.239076
vt -0.023888 -0.222850
vt -0.589258 0.070249
vt -0.556105 0.071836
vt 1.050131 0.172249
vt 1.018548 0.164931
vt -0.331937 0.374680
vt -0.598608 0.259282
vt -0.568560 0.253635
vt -0.315303 0.361214
vt 0.764386 0.309151
vt 0.740712 0.296494
vt 0.483411 0.416659
vt 0.467040 0.401811
vt 0.209528 0.447427
vt 0.204941 0.431136
vt -0.062268 0.433925
vt -0.055888 0.418202
vt 1.618690 0.458003
vt 1.618602 0.970222
vt 1.237842 1.240017
vt 1.257380 0.458003
vt -0.344480 0.458003
vt -0.315739 0.910567
vt -0.704635 0.503358
vt -0.705790 0.458003
vt 0.055985 0.458003
vt 0.077427 1.244103
vt 0.456450 0.458003
vt 0.463189 1.363997
vt 0.856914 0.458003
vt 0.850103 1.364044
vt 1.237842 -0.324011
vt 1.618602 -0.054215
vt -0.704635 0.412648
vt -0.315739 0.005440
vt 0.077427 -0.328095
vt 0.463189 -0.447990
vt 0.850103 -0.448037
vn 0.2339 -0.9454 -0.2269
vn -0.8662 -0.4983 0.0366
vn 0.2828 -0.2457 -0.9272
vn -0.2540 -0.8956 -0.3652
vn -0.0596 -0.9328 -0.3554
vn 0.0212 -0.9553 -0.2949
vn 0.0632 -0.9584 -0.2783
vn 0.0963 -0.9507 -0.2948
vn -0.4274 -0.2599 -0.8659
vn -0.3579 -0.2363 -0.9034
vn -0.1463 -0.2026 -0.9683
vn -0.0119 -0.1964 -0.9805
vn 0.1269 -0.2091 -0.9696
vn 0.8742 -0.3473 -0.3395
vn 0.2460 -0.9332 0.2621
vn -0.8664 -0.4984 0.0311
vn 0.3285 -0.1993 0.9232
vn -0.2345 -0.8759 0.4216
vn -0.0409 -0.9138 0.4042
vn 0.0369 -0.9394 0.3409
vn 0.0780 -0.9434 0.3225
vn 0.1120 -0.9349 0.3368
vn -0.3838 -0.2157 0.8978
vn -0.3125 -0.1904 0.9306
vn -0.0980 -0.1537 0.9832
vn 0.0368 -0.1471 0.9884
vn 0.1749 -0.1605 0.9714
vn 0.8903 -0.3309 0.3129
vn 0.8767 0.4714 -0.0955
vn -0.2795 0.2309 0.9320
vn 0.4282 0.2411 0.8709
vn 0.3591 0.2183 0.9074
vn 0.1471 0.1887 0.9710
vn 0.0129 0.1829 0.9830
vn -0.1261 0.1952 0.9726
vn -0.8823 0.3193 0.3457
vn 0.8798 0.4745 0.0284
vn -0.3255 0.1843 -0.9274
vn 0.3843 0.1967 -0.9020
vn 0.3136 0.1721 -0.9338
vn 0.0987 0.1397 -0.9853
vn -0.0359 0.1335 -0.9904
vn -0.1742 0.1464 -0.9738
vn -0.8987 0.3027 -0.3173
vn -0.0462 0.9983 -0.0353
vn -0.0615 0.9957 -0.0689
vn -0.0238 0.9967 -0.0782
vn -0.0126 0.9983 -0.0570
vn -0.0552 0.9984 -0.0154
vn -0.0723 0.9970 -0.0264
vn -0.0786 0.9962 -0.0381
vn -0.0362 0.9989 -0.0299
vn -0.0457 0.9989 -0.0125
vn -0.0593 0.9980 0.0219
vn -0.0211 0.9993 0.0293
vn -0.0110 0.9999 0.0075
vn -0.0556 0.9979 -0.0319
vn -0.0721 0.9972 -0.0200
vn -0.0779 0.9969 -0.0079
vn -0.0359 0.9992 -0.0184
vn -0.1166 0.9931 0.0142
vn 0.0507 0.9981 -0.0349
vn -0.0187 0.9998 0.0090
vn -0.0484 0.9982 0.0363
vn -0.0726 0.9967 0.0351
vn -0.0892 0.9954 0.0357
vn -0.1184 0.9913 -0.0581
vn 0.0511 0.9985 -0.0176
vn -0.0203 0.9981 -0.0581
vn -0.0513 0.9952 -0.0838
vn -0.0754 0.9938 -0.0813
vn -0.0921 0.9924 -0.0810
usemtl Material.017
s off
f 1/1/1 2/2/1 3/3/1 4/4/1
f 5/5/2 6/6/2 7/7/2 8/8/2
f 2/9/3 9/10/3 10/11/3 3/12/3
f 5/13/4 8/14/4 11/15/4 12/16/4
f 12/16/5 11/15/5 13/17/5 14/18/5
f 14/18/6 13/17/6 15/19/6 16/20/6
f 16/20/7 15/19/7 17/21/7 18/22/7
f 18/22/8 17/21/8 2/2/8 1/1/8
f 8/23/9 7/24/9 19/25/9 11/26/9
f 11/26/10 19/25/10 20/27/10 13/28/10
f 13/28/11 20/27/11 21/29/11 15/30/11
f 15/30/12 21/29/12 22/31/12 17/32/12
f 17/32/13 22/31/13 9/10/13 2/9/13
f 3/33/14 10/34/14 23/35/14 4/36/14
f 1/37/15 4/38/15 24/39/15 25/40/15
f 5/5/16 26/41/16 27/42/16 6/6/16
f 25/43/17 24/44/17 28/45/17 29/46/17
f 5/47/18 12/48/18 30/49/18 26/50/18
f 12/48/19 14/51/19 31/52/19 30/49/19
f 14/51/20 16/53/20 32/54/20 31/52/20
f 16/53/21 18/55/21 33/56/21 32/54/21
f 18/55/22 1/37/22 25/40/22 33/56/22
f 26/57/23 30/58/23 34/59/23 27/60/23
f 30/58/24 31/61/24 35/62/24 34/59/24
f 31/61/25 32/63/25 36/64/25 35/62/25
f 32/63/26 33/65/26 37/66/26 36/64/26
f 33/65/27 25/43/27 29/46/27 37/66/27
f 24/67/28 4/36/28 23/35/28 28/68/28
f 38/69/29 39/70/29 40/71/29 41/72/29
f 42/73/30 43/74/30 44/75/30 45/76/30
f 46/77/31 47/78/31 39/79/31 38/80/31
f 48/81/32 49/82/32 47/78/32 46/77/32
f 50/83/33 51/84/33 49/82/33 48/81/33
f 52/85/34 53/86/34 51/84/34 50/83/34
f 45/76/35 44/75/35 53/86/35 52/85/35
f 54/87/36 55/88/36 43/89/36 42/90/36
f 40/71/37 56/91/37 57/92/37 41/72/37
f 58/93/38 59/94/38 60/95/38 61/96/38
f 56/97/39 62/98/39 63/99/39 57/100/39
f 62/98/40 64/101/40 65/102/40 63/99/40
f 64/101/41 66/103/41 67/104/41 65/102/41
f 66/103/42 68/105/42 69/106/42 67/104/42
f 68/105/43 58/93/43 61/96/43 69/106/43
f 59/107/44 55/88/44 54/87/44 60/108/44
f 7/109/45 6/110/45 40/111/45 39/112/45
f 10/113/46 9/114/46 44/115/46 43/116/46
f 19/117/47 7/109/47 39/112/47 47/118/47
f 20/119/48 19/117/48 47/118/48 49/120/48
f 21/121/49 20/119/49 49/120/49 51/122/49
f 22/123/50 21/121/50 51/122/50 53/124/50
f 9/114/51 22/123/51 53/124/51 44/115/51
f 23/125/52 10/113/52 43/116/52 55/126/52
f 6/110/53 27/127/53 56/128/53 40/111/53
f 29/129/54 28/130/54 59/131/54 58/132/54
f 27/127/55 34/133/55 62/134/55 56/128/55
f 34/133/56 35/135/56 64/136/56 62/134/56
f 35/135/57 36/137/57 66/138/57 64/136/57
f 36/137/58 37/139/58 68/140/58 66/138/58
f 37/139/59 29/129/59 58/132/59 68/140/59
f 28/130/60 23/125/60 55/126/60 59/131/60
f 70/141/61 71/142/61 72/143/61 73/144/61
f 74/145/62 75/146/62 76/147/62 77/148/62
f 78/149/63 79/150/63 75/146/63 74/145/63
f 80/151/64 81/152/64 79/150/64 78/149/64
f 82/153/65 83/154/65 81/152/65 80/151/65
f 73/144/66 72/143/66 83/154/66 82/153/66
f 84/155/67 85/156/67 70/141/67 73/144/67
f 86/157/68 87/158/68 74/145/68 77/148/68
f 87/158/69 88/159/69 78/149/69 74/145/69
f 88/159/70 89/160/70 80/151/70 78/149/70
f 89/160/71 90/161/71 82/153/71 80/151/71
f 90/161/72 84/155/72 73/144/72 82/153/72
